<svg xmlns="http://www.w3.org/2000/svg" viewBox="0 0 128 128" role="img" aria-label="brain-sync icon">
  <rect width="128" height="128" rx="24" fill="#E7F1F7"/>
  <path
    d="M38 66c0-15.5 12.5-28 28-28 11.9 0 22.1 7.4 26.2 17.9 9 1.1 15.8 8.8 15.8 18.1 0 10.1-8.2 18-18.2 18H48c-9.9 0-18-8-18-18 0-7.7 4.8-14.4 11.7-17.1.2 3.1 1 6.1 2.3 9Z"
    fill="#2A6F97"
  />
  <path
    d="M48 74h16M72 60h16M64 86h16"
    fill="none"
    stroke="#F7FBFD"
    stroke-linecap="round"
    stroke-linejoin="round"
    stroke-width="8"
  />
  <circle cx="48" cy="74" r="6" fill="#F7FBFD"/>
  <circle cx="72" cy="60" r="6" fill="#F7FBFD"/>
  <circle cx="64" cy="86" r="6" fill="#F7FBFD"/>
</svg>
